<svg xmlns="http://www.w3.org/2000/svg" viewBox="0 0 16 16" role="img" aria-hidden="true">
  <path
    fill="currentColor"
    d="M8 0C3.58 0 0 3.58 0 8a8.01 8.01 0 0 0 5.47 7.59c.4.07.55-.17.55-.38l-.01-1.33c-2.23.49-2.7-1.07-2.7-1.07-.36-.92-.9-1.16-.9-1.16-.73-.5.06-.49.06-.49.81.06 1.24.83 1.24.83.71 1.22 1.88.87 2.33.67.07-.52.28-.87.5-1.08-1.78-.2-3.64-.89-3.64-3.95 0-.88.31-1.59.82-2.15-.08-.2-.36-1.02.08-2.13 0 0 .67-.21 2.2.82a7.71 7.71 0 0 1 4 0c1.53-1.03 2.2-.82 2.2-.82.44 1.11.16 1.93.08 2.13.51.56.82 1.27.82 2.15 0 3.07-1.87 3.75-3.65 3.95.29.25.54.73.54 1.48l-.01 2.19c0 .21.14.46.55.38A8.01 8.01 0 0 0 16 8c0-4.42-3.58-8-8-8Z"
  />
</svg>
